# xmcd CD database file
#
# Track frame offsets:
#	183
#	15300
#	28415
#	45993
#	60060
#	70868
#	86865
#	102120
#	119458
#	134030
#	137448
#	158495
#	170148
#	176333
#	186328
#	208193
#	228828
#	259548
#	275618
#	288320
#	307940
#	322515
#
# Disc length: 4545 seconds
#
# Revision: 0
# Processed by: cddbd v1.5.2PL0 Copyright (c) Steve Scherf et al.
# Submitted via: CDex 1.51
#
DISCID=2711bf16
DTITLE=Shirley Bassey - Live at Carnegie Hall
DYEAR=1900
DGENRE=Blues
TTITLE0=Goldfinger
TTITLE1=Where Am I Going
TTITLE2=I Capricorn
TTITLE3=Let Me Sing And I'm Happy
TTITLE4=Johnny One Note
TTITLE5=For All We Know
TTITLE6=I'd Like To Hate Myself In The Morning
TTITLE7=I Who Have Nothing
TTITLE8=Day By Day
TTITLE9=Narration
TTITLE10=And I Love You So
TTITLE11=Diamonds Are Forever
TTITLE12=Narration
TTITLE13=Big Spender
TTITLE14=Introduction Of Orchestra
TTITLE15=Never, Never, Never
TTITLE16=You And I
TTITLE17=Something
TTITLE18=A Lovely Way To Spend An Evening
TTITLE19=This Is My Life
TTITLE20=A Lovely Way To Spend An Evening
TTITLE21=The Party's Over
EXTD=
EXTT0=
EXTT1=
EXTT2=
EXTT3=
EXTT4=
EXTT5=
EXTT6=
EXTT7=
EXTT8=
EXTT9=
EXTT10=
EXTT11=
EXTT12=
EXTT13=
EXTT14=
EXTT15=
EXTT16=
EXTT17=
EXTT18=
EXTT19=
EXTT20=
EXTT21=
PLAYORDER=
